{"asset":{"version":"2.0","generator":"THREE.GLTFExporter r175"},"scenes":[{"name":"AuxScene","nodes":[5]}],"scene":0,"nodes":[{"mesh":0},{"matrix":[0.4408808686513998,0,-0.44088086865139986,0,0,-0.6234997038376408,0,0,0.44088086865139986,0,0.4408808686513998,0,0,0,0,1],"children":[0]},{"children":[1]},{"matrix":[1,0,0,0,0,1,0,0,0,0,1,0,-36.409265277023,49.56573174511677,34.6457419075316,1],"children":[2]},{"children":[3]},{"children":[4]}],"bufferViews":[{"buffer":0,"byteOffset":0,"byteLength":341424,"target":34962,"byteStride":12},{"buffer":0,"byteOffset":341424,"byteLength":227616,"target":34962,"byteStride":8},{"buffer":0,"byteOffset":569040,"byteLength":341424,"target":34962,"byteStride":12}],"buffers":[{"byteLength":910464,"uri":"data:application/octet-stream;base64,"}],"accessors":[{"bufferView":0,"componentType":5126,"count":28452,"max":[157.46600341796875,156.37899780273438,4.599999904632568],"min":[3.700000047683716,2.61299991607666,-0.6000000238418579],"type":"VEC3"},{"bufferView":1,"componentType":5126,"count":28452,"max":[157.46600341796875,156.07899475097656],"min":[2.61299991607666,-3.5999999046325684],"type":"VEC2"},{"bufferView":2,"componentType":5126,"count":28452,"max":[1,1,1],"min":[-1,-1,-1],"type":"VEC3"}],"materials":[{"pbrMetallicRoughness":{"baseColorFactor":[0.6375968739867731,0.6653872982754769,0.7083757798856457,1],"metallicFactor":0,"roughnessFactor":0.3},"doubleSided":true,"extensions":{"KHR_materials_transmission":{"transmissionFactor":1},"KHR_materials_volume":{"thicknessFactor":0,"attenuationColor":[1,1,1]}}}],"meshes":[{"primitives":[{"mode":4,"attributes":{"POSITION":0,"TEXCOORD_0":1,"NORMAL":2},"material":0}]}],"extensionsUsed":["KHR_materials_transmission","KHR_materials_volume"]}
