{"asset":{"version":"2.0","generator":"THREE.GLTFExporter r175"},"scenes":[{"name":"AuxScene","nodes":[5]}],"scene":0,"nodes":[{"mesh":0},{"matrix":[0.17213465401450082,0,-0.17213465401450084,0,0,-0.24343516226170742,0,0,0.17213465401450084,0,0.17213465401450082,0,0,0,0,1],"children":[0]},{"children":[1]},{"matrix":[1,0,0,0,0,1,0,0,0,0,1,0,-35.060709429349046,40.97792907292428,34.372170854331145,1],"children":[2]},{"children":[3]},{"children":[4]}],"bufferViews":[{"buffer":0,"byteOffset":0,"byteLength":597888,"target":34962,"byteStride":12},{"buffer":0,"byteOffset":597888,"byteLength":398592,"target":34962,"byteStride":8},{"buffer":0,"byteOffset":996480,"byteLength":597888,"target":34962,"byteStride":12}],"buffers":[{"byteLength":1594368,"uri":"data:application/octet-stream;base64,"}],"accessors":[{"bufferView":0,"componentType":5126,"count":49824,"max":[346.6343078613281,313.331298828125,4.599999904632568],"min":[56.73014831542969,23.332712173461914,-0.6000000238418579],"type":"VEC3"},{"bufferView":1,"componentType":5126,"count":49824,"max":[346.33294677734375,313.031005859375],"min":[31.68199920654297,-3.5999999046325684],"type":"VEC2"},{"bufferView":2,"componentType":5126,"count":49824,"max":[0.9999303817749023,0.9998840093612671,1],"min":[-0.9999940991401672,-0.9999196529388428,-1],"type":"VEC3"}],"materials":[{"pbrMetallicRoughness":{"baseColorFactor":[0.6375968739867731,0.6653872982754769,0.7083757798856457,1],"metallicFactor":0,"roughnessFactor":0.3},"doubleSided":true,"extensions":{"KHR_materials_transmission":{"transmissionFactor":1},"KHR_materials_volume":{"thicknessFactor":0,"attenuationColor":[1,1,1]}}}],"meshes":[{"primitives":[{"mode":4,"attributes":{"POSITION":0,"TEXCOORD_0":1,"NORMAL":2},"material":0}]}],"extensionsUsed":["KHR_materials_transmission","KHR_materials_volume"]}