{"asset":{"version":"2.0","generator":"THREE.GLTFExporter r175"},"scenes":[{"name":"AuxScene","nodes":[18]}],"scene":0,"nodes":[{"mesh":0},{"mesh":1},{"mesh":2},{"mesh":3},{"mesh":4},{"mesh":5},{"mesh":6},{"mesh":7},{"mesh":8},{"mesh":9},{"mesh":10},{"mesh":11},{"mesh":12},{"mesh":13},{"matrix":[0.07366063940556897,0,-0.07366063940556898,0,0,-0.10417187526042969,0,0,0.07366063940556898,0,0.07366063940556897,0,0,0,0,1],"children":[0,1,2,3,4,5,6,7,8,9,10,11,12,13]},{"children":[14]},{"matrix":[1,0,0,0,0,1,0,0,0,0,1,0,-35.50266003600075,7.088271145391682,35.20801749594053,1],"children":[15]},{"children":[16]},{"children":[17]}],"bufferViews":[{"buffer":0,"byteOffset":0,"byteLength":33120,"target":34962,"byteStride":12},{"buffer":0,"byteOffset":33120,"byteLength":22080,"target":34962,"byteStride":8},{"buffer":0,"byteOffset":55200,"byteLength":33120,"target":34962,"byteStride":12},{"buffer":0,"byteOffset":88320,"byteLength":33120,"target":34962,"byteStride":12},{"buffer":0,"byteOffset":121440,"byteLength":22080,"target":34962,"byteStride":8},{"buffer":0,"byteOffset":143520,"byteLength":33120,"target":34962,"byteStride":12},{"buffer":0,"byteOffset":176640,"byteLength":33840,"target":34962,"byteStride":12},{"buffer":0,"byteOffset":210480,"byteLength":22560,"target":34962,"byteStride":8},{"buffer":0,"byteOffset":233040,"byteLength":33840,"target":34962,"byteStride":12},{"buffer":0,"byteOffset":266880,"byteLength":33120,"target":34962,"byteStride":12},{"buffer":0,"byteOffset":300000,"byteLength":22080,"target":34962,"byteStride":8},{"buffer":0,"byteOffset":322080,"byteLength":33120,"target":34962,"byteStride":12},{"buffer":0,"byteOffset":355200,"byteLength":33120,"target":34962,"byteStride":12},{"buffer":0,"byteOffset":388320,"byteLength":22080,"target":34962,"byteStride":8},{"buffer":0,"byteOffset":410400,"byteLength":33120,"target":34962,"byteStride":12},{"buffer":0,"byteOffset":443520,"byteLength":33768,"target":34962,"byteStride":12},{"buffer":0,"byteOffset":477288,"byteLength":22512,"target":34962,"byteStride":8},{"buffer":0,"byteOffset":499800,"byteLength":33768,"target":34962,"byteStride":12},{"buffer":0,"byteOffset":533568,"byteLength":33768,"target":34962,"byteStride":12},{"buffer":0,"byteOffset":567336,"byteLength":22512,"target":34962,"byteStride":8},{"buffer":0,"byteOffset":589848,"byteLength":33768,"target":34962,"byteStride":12},{"buffer":0,"byteOffset":623616,"byteLength":33120,"target":34962,"byteStride":12},{"buffer":0,"byteOffset":656736,"byteLength":22080,"target":34962,"byteStride":8},{"buffer":0,"byteOffset":678816,"byteLength":33120,"target":34962,"byteStride":12},{"buffer":0,"byteOffset":711936,"byteLength":33840,"target":34962,"byteStride":12},{"buffer":0,"byteOffset":745776,"byteLength":22560,"target":34962,"byteStride":8},{"buffer":0,"byteOffset":768336,"byteLength":33840,"target":34962,"byteStride":12},{"buffer":0,"byteOffset":802176,"byteLength":33120,"target":34962,"byteStride":12},{"buffer":0,"byteOffset":835296,"byteLength":22080,"target":34962,"byteStride":8},{"buffer":0,"byteOffset":857376,"byteLength":33120,"target":34962,"byteStride":12},{"buffer":0,"byteOffset":890496,"byteLength":33120,"target":34962,"byteStride":12},{"buffer":0,"byteOffset":923616,"byteLength":22080,"target":34962,"byteStride":8},{"buffer":0,"byteOffset":945696,"byteLength":33120,"target":34962,"byteStride":12},{"buffer":0,"byteOffset":978816,"byteLength":33120,"target":34962,"byteStride":12},{"buffer":0,"byteOffset":1011936,"byteLength":22080,"target":34962,"byteStride":8},{"buffer":0,"byteOffset":1034016,"byteLength":33120,"target":34962,"byteStride":12},{"buffer":0,"byteOffset":1067136,"byteLength":33120,"target":34962,"byteStride":12},{"buffer":0,"byteOffset":1100256,"byteLength":22080,"target":34962,"byteStride":8},{"buffer":0,"byteOffset":1122336,"byteLength":33120,"target":34962,"byteStride":12},{"buffer":0,"byteOffset":1155456,"byteLength":33120,"target":34962,"byteStride":12},{"buffer":0,"byteOffset":1188576,"byteLength":22080,"target":34962,"byteStride":8},{"buffer":0,"byteOffset":1210656,"byteLength":33120,"target":34962,"byteStride":12}],"buffers":[{"byteLength":1243776,"uri":"data:application/octet-stream;base64,"}],"accessors":[{"bufferView":0,"componentType":5126,"count":2760,"max":[81.55999755859375,123.6510009765625,4.599999904632568],"min":[16.64900016784668,12.437000274658203,-0.6000000238418579],"type":"VEC3"},{"bufferView":1,"componentType":5126,"count":2760,"max":[123.6510009765625,123.35099792480469],"min":[12.437000274658203,-3.5999999046325684],"type":"VEC2"},{"bufferView":2,"componentType":5126,"count":2760,"max":[1,1,1],"min":[-1,-1,-1],"type":"VEC3"},{"bufferView":3,"componentType":5126,"count":2760,"max":[147.84800720214844,123.6510009765625,4.599999904632568],"min":[82.93699645996094,12.437000274658203,-0.6000000238418579],"type":"VEC3"},{"bufferView":4,"componentType":5126,"count":2760,"max":[147.84800720214844,123.35099792480469],"min":[12.437000274658203,-3.5999999046325684],"type":"VEC2"},{"bufferView":5,"componentType":5126,"count":2760,"max":[1,1,1],"min":[-1,-1,-1],"type":"VEC3"},{"bufferView":6,"componentType":5126,"count":2820,"max":[214.13600158691406,123.6510009765625,4.599999904632568],"min":[149.2239990234375,12.437000274658203,-0.6000000238418579],"type":"VEC3"},{"bufferView":7,"componentType":5126,"count":2820,"max":[214.13600158691406,123.35099792480469],"min":[12.437000274658203,-3.5999999046325684],"type":"VEC2"},{"bufferView":8,"componentType":5126,"count":2820,"max":[1,1,1],"min":[-1,-1,-1],"type":"VEC3"},{"bufferView":9,"componentType":5126,"count":2760,"max":[280.42401123046875,123.6510009765625,4.599999904632568],"min":[215.51300048828125,12.437000274658203,-0.6000000238418579],"type":"VEC3"},{"bufferView":10,"componentType":5126,"count":2760,"max":[280.42401123046875,123.35099792480469],"min":[12.437000274658203,-3.5999999046325684],"type":"VEC2"},{"bufferView":11,"componentType":5126,"count":2760,"max":[1,1,1],"min":[-1,-1,-1],"type":"VEC3"},{"bufferView":12,"componentType":5126,"count":2760,"max":[346.71099853515625,123.6510009765625,4.599999904632568],"min":[281.8009948730469,12.437000274658203,-0.6000000238418579],"type":"VEC3"},{"bufferView":13,"componentType":5126,"count":2760,"max":[346.71099853515625,123.35099792480469],"min":[12.437000274658203,-3.5999999046325684],"type":"VEC2"},{"bufferView":14,"componentType":5126,"count":2760,"max":[1,1,1],"min":[-1,-1,-1],"type":"VEC3"},{"bufferView":15,"componentType":5126,"count":2814,"max":[413.1232604980469,123.6510009765625,4.599999904632568],"min":[348.0880126953125,12.437000274658203,-0.6000000238418579],"type":"VEC3"},{"bufferView":16,"componentType":5126,"count":2814,"max":[413.1232604980469,123.35099792480469],"min":[12.437000274658203,-3.5999999046325684],"type":"VEC2"},{"bufferView":17,"componentType":5126,"count":2814,"max":[1,1,1],"min":[-1,-1,-1],"type":"VEC3"},{"bufferView":18,"componentType":5126,"count":2814,"max":[479.4112548828125,123.6510009765625,4.599999904632568],"min":[414.3760070800781,12.437000274658203,-0.6000000238418579],"type":"VEC3"},{"bufferView":19,"componentType":5126,"count":2814,"max":[479.4112548828125,123.35099792480469],"min":[12.437000274658203,-3.5999999046325684],"type":"VEC2"},{"bufferView":20,"componentType":5126,"count":2814,"max":[1,1,1],"min":[-1,-1,-1],"type":"VEC3"},{"bufferView":21,"componentType":5126,"count":2760,"max":[545.5750122070312,123.6510009765625,4.599999904632568],"min":[480.66400146484375,12.437000274658203,-0.6000000238418579],"type":"VEC3"},{"bufferView":22,"componentType":5126,"count":2760,"max":[545.5750122070312,123.35099792480469],"min":[12.437000274658203,-3.5999999046325684],"type":"VEC2"},{"bufferView":23,"componentType":5126,"count":2760,"max":[1,1,1],"min":[-1,-1,-1],"type":"VEC3"},{"bufferView":24,"componentType":5126,"count":2820,"max":[611.864013671875,123.6510009765625,4.599999904632568],"min":[546.9520263671875,12.437000274658203,-0.6000000238418579],"type":"VEC3"},{"bufferView":25,"componentType":5126,"count":2820,"max":[611.864013671875,123.35099792480469],"min":[12.437000274658203,-3.5999999046325684],"type":"VEC2"},{"bufferView":26,"componentType":5126,"count":2820,"max":[1,1,1],"min":[-1,-1,-1],"type":"VEC3"},{"bufferView":27,"componentType":5126,"count":2760,"max":[678.1510009765625,123.6510009765625,4.599999904632568],"min":[613.239990234375,12.437000274658203,-0.6000000238418579],"type":"VEC3"},{"bufferView":28,"componentType":5126,"count":2760,"max":[678.1510009765625,123.35099792480469],"min":[12.437000274658203,-3.5999999046325684],"type":"VEC2"},{"bufferView":29,"componentType":5126,"count":2760,"max":[1,1,1],"min":[-1,-1,-1],"type":"VEC3"},{"bufferView":30,"componentType":5126,"count":2760,"max":[744.4390258789062,123.6510009765625,4.599999904632568],"min":[679.5280151367188,12.437000274658203,-0.6000000238418579],"type":"VEC3"},{"bufferView":31,"componentType":5126,"count":2760,"max":[744.4390258789062,123.35099792480469],"min":[12.437000274658203,-3.5999999046325684],"type":"VEC2"},{"bufferView":32,"componentType":5126,"count":2760,"max":[1,1,1],"min":[-1,-1,-1],"type":"VEC3"},{"bufferView":33,"componentType":5126,"count":2760,"max":[810.7269897460938,123.6510009765625,4.599999904632568],"min":[745.8159790039062,12.437000274658203,-0.6000000238418579],"type":"VEC3"},{"bufferView":34,"componentType":5126,"count":2760,"max":[810.7269897460938,123.35099792480469],"min":[12.437000274658203,-3.5999999046325684],"type":"VEC2"},{"bufferView":35,"componentType":5126,"count":2760,"max":[1,1,1],"min":[-1,-1,-1],"type":"VEC3"},{"bufferView":36,"componentType":5126,"count":2760,"max":[877.0150146484375,123.6510009765625,4.599999904632568],"min":[812.10400390625,12.437000274658203,-0.6000000238418579],"type":"VEC3"},{"bufferView":37,"componentType":5126,"count":2760,"max":[877.0150146484375,123.35099792480469],"min":[12.437000274658203,-3.5999999046325684],"type":"VEC2"},{"bufferView":38,"componentType":5126,"count":2760,"max":[1,1,1],"min":[-1,-1,-1],"type":"VEC3"},{"bufferView":39,"componentType":5126,"count":2760,"max":[943.302978515625,123.6510009765625,4.599999904632568],"min":[878.3920288085938,12.437000274658203,-0.6000000238418579],"type":"VEC3"},{"bufferView":40,"componentType":5126,"count":2760,"max":[943.302978515625,123.35099792480469],"min":[12.437000274658203,-3.5999999046325684],"type":"VEC2"},{"bufferView":41,"componentType":5126,"count":2760,"max":[1,1,1],"min":[-1,-1,-1],"type":"VEC3"}],"materials":[{"pbrMetallicRoughness":{"baseColorFactor":[0.6375968739867731,0.6653872982754769,0.7083757798856457,1],"metallicFactor":0,"roughnessFactor":0.3},"doubleSided":true,"extensions":{"KHR_materials_transmission":{"transmissionFactor":1},"KHR_materials_volume":{"thicknessFactor":0,"attenuationColor":[1,1,1]}}}],"meshes":[{"primitives":[{"mode":4,"attributes":{"POSITION":0,"TEXCOORD_0":1,"NORMAL":2},"material":0}]},{"primitives":[{"mode":4,"attributes":{"POSITION":3,"TEXCOORD_0":4,"NORMAL":5},"material":0}]},{"primitives":[{"mode":4,"attributes":{"POSITION":6,"TEXCOORD_0":7,"NORMAL":8},"material":0}]},{"primitives":[{"mode":4,"attributes":{"POSITION":9,"TEXCOORD_0":10,"NORMAL":11},"material":0}]},{"primitives":[{"mode":4,"attributes":{"POSITION":12,"TEXCOORD_0":13,"NORMAL":14},"material":0}]},{"primitives":[{"mode":4,"attributes":{"POSITION":15,"TEXCOORD_0":16,"NORMAL":17},"material":0}]},{"primitives":[{"mode":4,"attributes":{"POSITION":18,"TEXCOORD_0":19,"NORMAL":20},"material":0}]},{"primitives":[{"mode":4,"attributes":{"POSITION":21,"TEXCOORD_0":22,"NORMAL":23},"material":0}]},{"primitives":[{"mode":4,"attributes":{"POSITION":24,"TEXCOORD_0":25,"NORMAL":26},"material":0}]},{"primitives":[{"mode":4,"attributes":{"POSITION":27,"TEXCOORD_0":28,"NORMAL":29},"material":0}]},{"primitives":[{"mode":4,"attributes":{"POSITION":30,"TEXCOORD_0":31,"NORMAL":32},"material":0}]},{"primitives":[{"mode":4,"attributes":{"POSITION":33,"TEXCOORD_0":34,"NORMAL":35},"material":0}]},{"primitives":[{"mode":4,"attributes":{"POSITION":36,"TEXCOORD_0":37,"NORMAL":38},"material":0}]},{"primitives":[{"mode":4,"attributes":{"POSITION":39,"TEXCOORD_0":40,"NORMAL":41},"material":0}]}],"extensionsUsed":["KHR_materials_transmission","KHR_materials_volume"]}